# xmcd
#
# Track frame offsets:
#	150
#	14590
#	28152
#	43334
#	57525
# Disc length: 1042 seconds
# Revision: 1
# Processed by: cddbd v1.5.1PL0 Copyright (c) Steve Scherf et al.
#
# Submitted via: libkcddb 0.10
#
DISCID=46041005
DTITLE=The Gaz Guzzlers - The Gaz Guzzlers
DYEAR=1900
DGENRE=
TTITLE0=Shake your tailfeather
TTITLE1=Messin' with the kid
TTITLE2=Son of a preacher man
TTITLE3=I will survive
TTITLE4=Living in America (live)
EXTD=
EXTT0=
EXTT1=
EXTT2=
EXTT3=
EXTT4=
PLAYORDER=
